# xmcd
#
# Track frame offsets: 
#        150
#        19238
#        35475
#        49350
#        68305
#        79350
#        89900
#        106917
#        124250
#        134253
#
# Disc length: 1977 seconds
#
# Revision: 0
# Processed by: cddbd v1.5.2PL0 Copyright (c) Steve Scherf et al.
# Submitted via: ExactAudioCopy v1.3
#
DISCID=8a07b70a
DTITLE=Robert James Starr - Light A Fire with Me
DYEAR=2019
DGENRE=Blues Gospel
TTITLE0=Ain’t No Love Here
TTITLE1=When The Bad Man Comes For You
TTITLE2=Easy Livin’ Blues
TTITLE3=Forgive Me (Cause I Don’t Know What I Do)
TTITLE4=Uptown Barbi
TTITLE5=Shame On You And Me
TTITLE6=Where Did My Love Go
TTITLE7=Jackson Mississippi
TTITLE8=I Fell In The Delta
TTITLE9=I Gave My Heart To A Southern Girl
EXTD=
EXTT0=
EXTT1=
EXTT2=
EXTT3=
EXTT4=
EXTT5=
EXTT6=
EXTT7=
EXTT8=
EXTT9=
PLAYORDER=
